<?xml version="1.0" encoding="utf-8"?>
<!-- Generator: Adobe Illustrator 16.0.0, SVG Export Plug-In . SVG Version: 6.00 Build 0)  -->
<!DOCTYPE svg PUBLIC "-//W3C//DTD SVG 1.1//EN" "http://www.w3.org/Graphics/SVG/1.1/DTD/svg11.dtd">
<svg version="1.1" id="圖層_1" xmlns="http://www.w3.org/2000/svg" xmlns:xlink="http://www.w3.org/1999/xlink" x="0px" y="0px"
	 width="184.667px" height="190.654px" viewBox="0 0 184.667 190.654" enable-background="new 0 0 184.667 190.654"
	 xml:space="preserve">
<path fill="#006837" d="M115.077,76.184c0,0-0.131-29.759-11.634-39.343c0,0-5.908-8.467-23.001-7.028c-3.039,1.437,0,4.631,0,4.631
	s6.231-0.64,9.423,0.48C111.912,39.238,115.077,76.184,115.077,76.184"/>
<path fill="#006837" d="M93.643,34.875c0,0-2.925,4.654,2.525,10.908C99.23,38.07,93.643,34.875,93.643,34.875"/>
<path fill="#006837" d="M114.278,39.543c0,0-4.665,2.928-10.911-2.527C111.082,33.959,114.278,39.543,114.278,39.543"/>
<path fill="#FF0000" d="M76.245,31.93c0,2.576-2.09,4.669-4.671,4.669c-2.579,0-4.671-2.093-4.671-4.669
	c0-2.582,2.092-4.674,4.671-4.674C74.155,27.256,76.245,29.348,76.245,31.93"/>
<path fill="#FF0000" d="M72.772,16.834c0,0.66-0.538,1.197-1.193,1.197c-0.665,0-1.203-0.537-1.203-1.197
	c0-0.664,0.538-1.195,1.203-1.195C72.234,15.639,72.772,16.17,72.772,16.834"/>
<path fill="#FF0000" d="M67.541,17.335c0.225,0.62-0.099,1.307-0.719,1.535c-0.619,0.225-1.311-0.099-1.535-0.718
	c-0.227-0.619,0.095-1.309,0.714-1.535C66.625,16.393,67.311,16.711,67.541,17.335"/>
<path fill="#FF0000" d="M62.791,19.596c0.425,0.505,0.357,1.262-0.147,1.686c-0.506,0.424-1.264,0.359-1.69-0.144
	c-0.425-0.512-0.361-1.267,0.147-1.692C61.608,19.019,62.367,19.086,62.791,19.596"/>
<path fill="#FF0000" d="M59.103,23.346c0.567,0.326,0.768,1.064,0.433,1.63c-0.325,0.575-1.059,0.772-1.631,0.444
	c-0.577-0.332-0.772-1.068-0.442-1.641C57.799,23.207,58.526,23.01,59.103,23.346"/>
<path fill="#FF0000" d="M56.917,28.127c0.653,0.115,1.089,0.736,0.97,1.388c-0.114,0.653-0.733,1.086-1.387,0.97
	c-0.651-0.112-1.085-0.736-0.975-1.388C55.646,28.445,56.263,28.015,56.917,28.127"/>
<path fill="#FF0000" d="M56.5,33.371c0.653-0.113,1.272,0.318,1.394,0.969c0.112,0.651-0.323,1.275-0.977,1.388
	c-0.653,0.116-1.272-0.316-1.387-0.97C55.415,34.106,55.848,33.482,56.5,33.371"/>
<path fill="#FF0000" d="M57.905,38.438c0.572-0.332,1.302-0.137,1.631,0.44c0.333,0.57,0.135,1.304-0.433,1.634
	c-0.577,0.33-1.309,0.135-1.641-0.439C57.132,39.5,57.328,38.769,57.905,38.438"/>
<path fill="#FF0000" d="M60.953,42.722c0.427-0.507,1.185-0.575,1.69-0.148c0.505,0.427,0.572,1.179,0.147,1.69
	c-0.424,0.505-1.183,0.568-1.69,0.146C60.591,43.982,60.528,43.229,60.953,42.722"/>
<path fill="#FF0000" d="M65.287,45.702c0.225-0.622,0.916-0.94,1.535-0.714c0.62,0.227,0.943,0.914,0.719,1.533
	c-0.229,0.627-0.916,0.943-1.54,0.717C65.381,47.014,65.06,46.326,65.287,45.702"/>
<path fill="#FF0000" d="M70.375,47.026c0-0.662,0.538-1.198,1.198-1.198s1.198,0.536,1.198,1.198c0,0.66-0.538,1.194-1.198,1.194
	S70.375,47.687,70.375,47.026"/>
<path fill="none" stroke="#8C6239" stroke-width="2.2985" stroke-miterlimit="10" d="M186.235,2.346c0,0-65.948,33.709-77.317,92.83
	c-11.364,59.12-87.239,76.094-87.239,76.094"/>
<polygon fill="#FFFF00" points="42.08,179.283 27.636,178.941 19.165,190.654 15.021,176.805 1.273,172.369 13.158,164.152 
	13.131,149.704 24.624,158.467 38.354,153.978 33.566,167.611 "/>
<polygon fill="#FFFFFF" points="33.328,175.377 25.081,175.182 20.245,181.869 17.878,173.963 10.029,171.43 16.814,166.738 
	16.799,158.49 23.361,163.493 31.2,160.93 28.466,168.713 "/>
</svg>
